# Blender 4.4.1
# www.blender.org
mtllib player.mtl
o Cube
v 0.721697 -0.097161 0.115809
v 0.185095 0.500000 0.189844
v 0.185095 0.188778 0.502824
v 0.185095 -0.500000 0.189844
v 0.721697 -0.327479 0.115809
v 0.185095 -0.188778 0.502824
v -0.185095 0.188778 0.502824
v -0.185095 0.500000 0.189844
v -0.678303 -0.096074 0.119184
v -0.185095 -0.188778 0.502824
v -0.678303 -0.333103 0.119184
v -0.185095 -0.500000 0.189844
v 0.721697 -0.097161 -0.115809
v 0.185095 0.188778 -0.502824
v 0.185095 0.500000 -0.189844
v 0.053253 -0.299618 -0.797176
v 0.721697 -0.327479 -0.115809
v 0.053253 -0.389159 -0.707130
v -0.185095 0.188778 -0.502824
v -0.678303 -0.096074 -0.119184
v -0.185095 0.500000 -0.189844
v -0.053253 -0.389159 -0.707130
v -0.678303 -0.333103 -0.119184
v -0.053253 -0.299618 -0.797176
v 0.185095 -0.500000 -0.189844
v 0.185095 -0.188778 -0.502824
v -0.185095 -0.188778 -0.502824
v -0.185095 -0.500000 -0.189844
v 0.490245 -0.188778 -0.189844
v 0.490245 -0.188778 0.189844
v 0.490245 0.188778 0.189844
v 0.490245 0.188778 -0.189844
v -0.490245 -0.188778 -0.189844
v -0.490245 0.188778 -0.189844
v -0.490245 0.188778 0.189844
v -0.490245 -0.188778 0.189844
vn -0.0000 -1.0000 -0.0000
vn -0.0000 -0.0000 -1.0000
vn -1.0000 -0.0000 -0.0000
vn -0.0000 1.0000 -0.0000
vn -0.0000 -0.0000 1.0000
vn 0.5860 0.5746 0.5714
vn 0.5860 -0.5746 0.5714
vn -0.5860 0.5746 0.5714
vn -0.5860 -0.5746 0.5714
vn 0.5860 0.5746 -0.5714
vn 0.5860 -0.5746 -0.5714
vn -0.5860 0.5746 -0.5714
vn -0.5860 -0.5746 -0.5714
vn -0.0000 -0.7091 -0.7051
vn 0.7140 -0.7001 -0.0000
vn 0.7160 -0.0000 0.6981
vn -0.7160 -0.0000 -0.6981
vn -0.7160 -0.0000 0.6981
vn 0.7160 -0.0000 -0.6981
vn -0.7140 0.7001 -0.0000
vn -0.0000 0.7091 0.7051
vn -0.7140 -0.7001 -0.0000
vn -0.0000 0.7091 -0.7051
vn 0.7140 0.7001 -0.0000
vn -0.0000 -0.7091 0.7051
vn 1.0000 -0.0000 -0.0000
vn 0.9082 -0.2967 -0.2951
vn -0.9082 -0.2967 -0.2951
vn -0.0000 -0.9778 -0.2095
vn -0.0000 0.9358 -0.3524
vn -0.5140 -0.8578 -0.0000
vn 0.3047 -0.0000 0.9525
vn 0.3047 -0.0000 -0.9525
vn 0.7773 0.6292 -0.0000
vn -0.3517 -0.0000 -0.9361
vn -0.3517 -0.0000 0.9361
vn -0.8345 0.5510 -0.0000
vn 0.6088 -0.7933 -0.0000
vt 0.819750 0.793350
vt 0.727534 0.636538
vt 0.819750 0.648382
vt 0.144393 0.551198
vt 0.018715 0.706291
vt 0.000000 0.571203
vt 0.613625 0.728822
vt 0.727534 0.748567
vt 0.646603 0.791291
vt 0.440326 0.162313
vt 0.507543 0.000000
vt 0.561773 0.081690
vt 0.120162 0.342298
vt 0.265934 0.196544
vt 0.265934 0.342298
vt 0.655653 0.223106
vt 0.711061 0.089310
vt 0.988827 0.795138
vt 0.912812 0.904874
vt 0.386095 0.613318
vt 0.449058 0.475198
vt 0.528023 0.624780
vt 0.265934 0.074477
vt 0.386095 0.194623
vt 0.534206 0.303730
vt 0.389393 0.302851
vt 0.912812 0.520909
vt 0.988827 0.650170
vt 0.727534 0.433070
vt 0.656935 0.556726
vt 0.577970 0.407145
vt 1.000000 0.247623
vt 0.834608 0.258512
vt 0.903491 0.107753
vt 0.382228 0.735403
vt 0.347657 0.708376
vt 0.382228 0.696166
vt 0.120161 0.460523
vt 0.711061 0.218525
vt 0.120162 0.196544
vt 0.120162 0.074477
vt 0.039966 0.859682
vt 0.163109 0.686286
vt 0.184360 0.839678
vt 0.000000 0.194623
vt -0.000000 0.340377
vt 0.993532 0.377318
vt 0.287957 0.711834
vt 0.269242 0.576746
vt 0.386095 0.340377
vt 0.645566 0.791291
vt 0.576696 0.885626
vt 0.576696 0.797193
vt 0.820051 0.443819
vt 1.000000 0.040242
vt 0.972234 0.000000
vt 0.793520 0.440412
vt 0.510108 0.791291
vt 0.478644 0.904301
vt 0.481898 0.791291
vt 0.478644 0.793403
vt 0.386095 0.921148
vt 0.386095 0.791291
vt 0.230561 0.551198
vt 0.265934 0.460523
vt 0.319486 0.551198
vt 0.088083 0.949232
vt 0.636975 0.407144
vt 0.711061 0.357962
vt 0.287957 0.806146
vt 0.347657 0.841939
vt 0.287957 0.897662
vt 0.230141 0.000000
vt 0.694556 0.686098
vt 0.287957 0.575858
vt 0.377960 0.696166
vt 0.287957 0.666869
vt 0.727534 0.781506
vt 0.386095 0.080623
vt 0.347657 0.747613
vt 0.779945 0.067766
vt 0.828139 0.388207
vt 0.645566 0.879725
vt 0.846826 0.407144
vt 0.576696 0.904301
vt 0.478644 0.872618
vt 0.000000 0.961435
vt 0.347657 0.696166
vt 0.321657 0.000000
vt 0.377960 0.551198
s 0
usemtl Material
f 4/1/1 28/2/1 25/3/1
f 19/4/2 26/5/2 27/6/2
f 9/7/3 23/8/3 11/9/3
f 15/10/4 8/11/4 2/12/4
f 3/13/5 10/14/5 6/15/5
f 31/16/6 2/12/6 3/17/6
f 4/1/7 30/18/7 6/19/7
f 7/20/8 8/21/8 35/22/8
f 10/14/9 36/23/9 12/24/9
f 32/25/10 14/26/10 15/10/10
f 26/27/11 29/28/11 25/3/11
f 19/29/12 34/30/12 21/31/12
f 28/32/13 33/33/13 27/34/13
f 22/35/14 16/36/14 18/37/14
f 25/3/15 30/18/15 4/1/15
f 6/15/16 31/38/16 3/13/16
f 34/39/17 27/34/17 33/33/17
f 36/23/18 7/40/18 35/41/18
f 29/42/19 14/43/19 32/44/19
f 21/31/20 35/22/20 8/21/20
f 8/45/21 3/13/21 2/46/21
f 12/47/22 33/33/22 28/32/22
f 15/48/23 19/4/23 21/49/23
f 2/12/24 32/25/24 15/10/24
f 4/50/25 10/14/25 12/24/25
f 13/51/26 5/52/26 17/53/26
f 18/54/27 26/27/27 25/3/27
f 22/55/28 27/34/28 24/56/28
f 18/54/29 28/2/29 22/57/29
f 24/58/30 26/59/30 16/60/30
f 17/61/31 30/62/31 29/63/31
f 1/64/32 30/65/32 5/66/32
f 13/67/33 29/42/33 32/44/33
f 13/68/34 31/16/34 1/69/34
f 20/70/35 33/71/35 23/72/35
f 9/73/36 36/23/36 35/41/36
f 9/7/37 34/30/37 20/74/37
f 23/75/38 36/76/38 11/77/38
f 4/1/1 12/78/1 28/2/1
f 19/4/2 14/43/2 26/5/2
f 9/7/3 20/74/3 23/8/3
f 15/10/4 21/79/4 8/11/4
f 3/13/5 7/40/5 10/14/5
f 22/35/14 24/80/14 16/36/14
f 25/3/15 29/28/15 30/18/15
f 6/15/16 30/65/16 31/38/16
f 34/39/17 19/81/17 27/34/17
f 36/23/18 10/14/18 7/40/18
f 29/42/19 26/5/19 14/43/19
f 21/31/20 34/30/20 35/22/20
f 8/45/21 7/40/21 3/13/21
f 12/47/22 36/82/22 33/33/22
f 15/48/23 14/43/23 19/4/23
f 2/12/24 31/16/24 32/25/24
f 4/50/25 6/15/25 10/14/25
f 13/51/26 1/83/26 5/52/26
f 18/54/27 16/84/27 26/27/27
f 22/55/28 28/32/28 27/34/28
f 18/54/29 25/3/29 28/2/29
f 24/58/30 27/85/30 26/59/30
f 17/61/31 5/86/31 30/62/31
f 1/64/32 31/38/32 30/65/32
f 13/67/33 17/87/33 29/42/33
f 13/68/34 32/25/34 31/16/34
f 20/70/35 34/88/35 33/71/35
f 9/73/36 11/89/36 36/23/36
f 9/7/37 35/22/37 34/30/37
f 23/75/38 33/90/38 36/76/38
